<svg width="200" height="200" viewBox="0 0 200 200" fill="none" xmlns="http://www.w3.org/2000/svg">
<path d="M159.04 20.56L157.27 13.49C155.38 5.93 147.79 0 139.99 0H59.99C52.19 0 44.61 5.93 42.71 13.49L40.94 20.56C34.63 22.33 29.98 28.13 29.98 35V45C29.98 51.63 34.3 57.26 40.27 59.24L49.28 185.38C49.86 193.44 56.9 200 64.98 200H134.98C143.06 200 150.1 193.44 150.68 185.38L159.69 59.24C165.66 57.26 169.98 51.63 169.98 45V35C169.98 28.13 165.34 22.33 159.02 20.56H159.04ZM60 10H140C143.19 10 146.8 12.82 147.57 15.91L148.59 20H51.4L52.42 15.91C53.19 12.82 56.8 10 59.99 10H60ZM148.92 70H51.09L50.38 60H149.64L148.93 70H148.92ZM142.49 160H57.52L51.81 80H148.21L142.5 160H142.49ZM135 190H65C62.1 190 59.48 187.56 59.27 184.67L58.22 170H141.77L140.72 184.67C140.51 187.56 137.89 190 134.99 190H135ZM160 45C160 47.76 157.76 50 155 50H45C42.24 50 40 47.76 40 45V35C40 32.25 42.24 30.01 44.99 30C45 30 45 30 45.01 30C45.02 30 45.03 30 45.04 30H155.01C157.77 30 160.01 32.24 160.01 35V45H160Z" fill="black"/>
<path fill-rule="evenodd" clip-rule="evenodd" d="M150 74H49V161H150V74ZM70 120C70 136.54 83.46 150 100 150C116.54 150 130 136.54 130 120C130 103.46 116.54 90 100 90C83.46 90 70 103.46 70 120ZM80 120C80 108.97 88.97 100 100 100C111.03 100 120 108.97 120 120C120 131.03 111.03 140 100 140C88.97 140 80 131.03 80 120Z" fill="black"/>
</svg>
