<svg width="200" height="200" viewBox="0 0 200 200" fill="none" xmlns="http://www.w3.org/2000/svg">
<g clip-path="url(#clip0_114_36)">
<path fill-rule="evenodd" clip-rule="evenodd" d="M36 0C16.1178 0 0 16.1178 0 36V164C0 183.882 16.1178 200 36 200H164C181.589 200 196.232 187.386 199.376 170.711C192.927 167.721 138.46 142.443 126.597 136.094C125.465 136.094 124.315 136.094 123.165 134.963C104.801 156.366 78.441 173.262 37.1487 164.249C31.4167 165.362 -5.2756 131.587 33.7167 104.564C34.0269 104.411 34.3943 104.207 34.8278 103.967C40.8233 100.644 59.4564 90.3165 114.001 111.315L114.032 111.254C118.609 102.251 124.315 91.0251 124.315 83.1602C125.465 82.047 125.465 82.047 125.465 80.9157H46.3308V74.1644H85.3231V58.3992H39.4487V51.6478H85.3231V28H108.251V51.6478H158.708V58.3992H108.251V74.1644H150.676C150.676 74.1644 146.094 95.5677 133.479 118.084C135.874 118.868 138.359 119.684 140.902 120.52C163.946 128.093 191.73 137.225 200 137.225V36C200 16.1178 183.882 0 164 0H36ZM34.8667 150.728C40.5988 152.99 74.991 164.249 103.669 128.211C103.669 128.211 104.819 127.08 105.969 124.836C87.6231 115.84 62.3949 105.695 33.7167 114.709C16.5206 122.591 21.1026 147.352 34.8667 150.728Z" fill="black"/>
</g>
<defs>
<clipPath id="clip0_114_36">
<rect width="200" height="200" fill="white"/>
</clipPath>
</defs>
</svg>
