<svg width="200" height="200" viewBox="0 0 200 200" fill="none" xmlns="http://www.w3.org/2000/svg">
<path d="M86.4083 133.597C85.2429 133.608 84.0946 133.293 83.0752 132.683C82.0559 132.073 81.2003 131.188 80.5917 130.114L80.15 129.133L45.2917 79.39C45.0818 78.9464 44.9678 78.4571 44.9583 77.959C44.9845 77.0312 45.3499 76.1523 45.9746 75.5147C46.5993 74.8771 47.4324 74.5328 48.2917 74.557C49.0417 74.557 49.7333 74.809 50.2917 75.232L88.4417 99.829C89.7586 100.698 91.237 101.242 92.7711 101.422C94.3053 101.603 95.8574 101.415 97.3167 100.873L181.683 46C163.567 24.22 133.75 10 100 10C44.7667 10 0 48.07 0 95.014C0 120.628 13.4667 143.686 34.55 159.265C35.4008 159.869 36.101 160.69 36.5893 161.655C37.0775 162.62 37.3387 163.7 37.35 164.8C37.3294 165.54 37.2116 166.274 37 166.978L32.4917 184.114C32.275 184.924 31.95 185.761 31.95 186.598C31.95 188.488 33.45 190 35.2833 190C36 190 36.5917 189.73 37.2 189.37L59.1 176.482C60.75 175.51 62.4833 174.907 64.4083 174.907C65.4333 174.907 66.4083 175.069 67.35 175.348C77.5583 178.345 88.5833 180.019 99.9917 180.019C155.225 180.01 200 141.94 200 95.014C200 80.785 195.858 67.393 188.6 55.621L90.1333 132.436L89.4083 132.859C88.473 133.347 87.4472 133.6 86.4083 133.597Z" fill="black"/>
</svg>
